<svg width="260" height="250" viewBox="0 0 260 250" fill="none" xmlns="http://www.w3.org/2000/svg">
<rect width="260" height="250" rx="20" fill="white"/>
<path d="M130 4C60.9735 4 5 59.7735 5 128.576C5 183.617 40.8164 230.313 90.4833 246.786C96.7301 247.939 99.0241 244.084 99.0241 240.793C99.0241 237.823 98.9075 228.009 98.8545 217.599C64.0783 225.135 56.7403 202.901 56.7403 202.901C51.0543 188.502 42.8614 184.674 42.8614 184.674C31.5206 176.941 43.7163 177.1 43.7163 177.1C56.2688 177.979 62.8783 189.938 62.8783 189.938C74.027 208.983 92.1205 203.476 99.2535 200.294C100.375 192.242 103.615 186.747 107.19 183.636C79.4258 180.485 50.2386 169.803 50.2386 122.07C50.2386 108.469 55.1218 97.3558 63.1185 88.6319C61.8205 85.4937 57.5423 72.8237 64.3293 55.6641C64.3293 55.6641 74.826 52.3159 98.7134 68.4339C108.684 65.6728 119.377 64.2893 130 64.2424C140.624 64.2893 151.325 65.6728 161.315 68.4339C185.174 52.3159 195.656 55.6641 195.656 55.6641C202.46 72.8237 198.179 85.4937 196.881 88.6319C204.896 97.3558 209.746 108.468 209.746 122.07C209.746 169.917 180.504 180.453 152.669 183.536C157.152 187.402 161.147 194.984 161.147 206.606C161.147 223.274 161.002 236.689 161.002 240.793C161.002 244.108 163.252 247.993 169.589 246.769C219.229 230.278 255 183.599 255 128.576C255 59.7735 199.034 4 130 4Z" fill="#161614"/>
</svg>
