<svg width="260" height="220" viewBox="0 0 260 220" fill="none" xmlns="http://www.w3.org/2000/svg">
<rect width="260" height="220" rx="20" fill="white"/>
<path fill-rule="evenodd" clip-rule="evenodd" d="M42.712 174.906V158.928C42.712 156.828 44.0245 155.142 46.1984 155.142H46.7999C48.9728 155.142 50.2794 156.83 50.2794 158.928V192.567C50.2794 200.77 46.2267 207.298 39.1642 211.456C35.929 213.373 32.2361 214.38 28.4757 214.371H26.9747C18.7696 214.371 12.2511 210.315 8.08605 203.258C6.16662 200.023 5.15958 196.329 5.17199 192.567V191.068C5.17199 182.862 9.22668 176.339 16.2833 172.173C19.5179 170.252 23.2129 169.245 26.9747 169.258H28.4757C34.0284 169.258 38.7394 171.41 42.712 174.906ZM12.7384 191.816C12.7384 197.742 15.6105 202.197 20.8028 205.039C22.9025 206.187 25.1818 206.805 27.5773 206.805C33.3937 206.805 37.7081 204.061 40.6837 199.132C42.0675 196.839 42.712 194.33 42.712 191.663C42.712 186.526 40.2804 182.518 36.1407 179.54C33.631 177.735 30.8058 176.83 27.7247 176.83C21.3849 176.83 16.8224 180.033 14.0841 185.723C13.1603 187.646 12.7384 189.688 12.7384 191.816ZM76.5314 169.258H77.5802C86.3478 169.258 93.0157 173.511 97.2413 181.164C98.9308 184.226 99.8351 187.567 99.8351 191.068V192.567C99.8351 200.77 95.7901 207.307 88.7169 211.457C85.4425 213.378 81.8253 214.371 78.0304 214.371H76.5314C68.3263 214.371 61.8058 210.315 57.6427 203.258C55.7223 200.023 54.7143 196.329 54.7257 192.567V191.068C54.7257 182.861 58.797 176.359 65.836 172.175C69.1085 170.23 72.7286 169.258 76.5314 169.258ZM62.2931 191.816C62.2931 197.568 65.1153 201.8 69.9737 204.775C72.255 206.172 74.7677 206.805 77.4327 206.805C83.1163 206.805 87.3175 203.923 90.2413 199.126C91.6359 196.839 92.2667 194.326 92.2667 191.663C92.2667 186.314 89.6905 182.229 85.2862 179.268C82.8732 177.644 80.1866 176.83 77.2804 176.83C70.9405 176.83 66.378 180.033 63.6407 185.723C62.715 187.646 62.2931 189.688 62.2931 191.816ZM131.293 177.435C130.15 176.899 128.012 176.722 126.777 176.675C120.455 176.437 115.881 179.997 113.197 185.574C112.271 187.498 111.848 189.534 111.848 191.663C111.848 198.145 115.251 202.683 121.036 205.449C123.15 206.459 125.878 206.65 128.188 206.65C130.219 206.65 133.09 205.406 134.893 204.55L135.205 204.401H136.605L136.759 204.433C138.48 204.791 139.778 205.882 139.778 207.733V208.482C139.778 213.09 131.359 214.145 128.146 214.369C116.808 215.153 108.328 208.927 105.096 198.112C104.534 196.234 104.281 194.369 104.281 192.412V190.915C104.281 182.709 108.354 176.209 115.392 172.028C118.664 170.085 122.283 169.108 126.085 169.108H127.585C131.618 169.108 135.333 170.254 138.663 172.528L138.937 172.718L139.109 173.003C139.469 173.599 139.778 174.288 139.778 174.997V175.746C139.778 177.678 138.333 178.717 136.589 179.053L136.444 179.078H135.997C134.868 179.078 132.301 177.909 131.293 177.435ZM155.838 182.559C158.777 179.615 161.727 176.678 164.71 173.783C165.541 172.976 168.689 169.558 169.928 169.558H171.283L171.438 169.59C173.164 169.948 174.457 171.041 174.457 172.896V173.645C174.457 174.91 172.975 176.381 172.157 177.247C170.419 179.09 168.589 180.872 166.81 182.677L157.667 191.958C161.604 195.903 165.536 199.852 169.441 203.827C170.523 204.924 171.598 206.03 172.664 207.144C173.04 207.539 173.595 208.031 173.91 208.579C174.249 209.093 174.457 209.672 174.457 210.29V211.071L174.413 211.252C173.988 212.978 172.893 214.371 170.98 214.371H170.377C169.125 214.371 167.711 212.955 166.854 212.145C165.086 210.479 163.38 208.728 161.648 207.025L155.838 201.322V210.437C155.838 212.537 154.524 214.225 152.353 214.225H151.757C149.583 214.225 148.271 212.537 148.271 210.437V159.074C148.271 156.975 149.584 155.295 151.757 155.295H152.353C154.524 155.295 155.838 156.975 155.838 159.074V182.559ZM250.151 169.558H250.903C253.173 169.558 254.688 171.087 254.688 173.344C254.688 176.477 251.692 177.278 249.102 177.278C245.703 177.278 242.458 179.336 240.115 181.644C237.194 184.523 235.916 188.212 235.916 192.267V210.586C235.916 212.686 234.605 214.371 232.43 214.371H231.832C229.657 214.371 228.347 212.687 228.347 210.586V191.215C228.347 183.776 231.968 177.704 238.005 173.445C241.609 170.901 245.738 169.558 250.151 169.558ZM196.368 205.862C199.122 206.824 202.262 206.687 205.087 206.194C206.532 205.58 210.228 203.968 211.587 204.204L211.799 204.24L211.994 204.336C212.824 204.738 213.616 205.308 214.04 206.152C215.03 208.132 214.555 210.122 212.609 211.246L211.962 211.62C204.784 215.763 197.15 215.188 189.994 211.319C186.573 209.47 183.956 206.725 182.025 203.378L181.574 202.596C176.966 194.615 177.588 186.221 182.785 178.632C184.579 176.009 186.924 173.982 189.665 172.397L190.702 171.799C197.462 167.896 204.707 168.164 211.65 171.589C215.383 173.431 218.407 176.176 220.491 179.786L220.866 180.437C222.38 183.06 220.419 185.345 218.395 186.907C216.045 188.72 213.673 190.901 211.421 192.845C206.4 197.18 201.386 201.524 196.368 205.862ZM189.869 201.298C195.484 196.483 201.102 191.664 206.702 186.829C208.616 185.179 210.715 183.466 212.613 181.73C211.09 179.811 208.545 178.427 206.383 177.602C202.018 175.938 197.714 176.497 193.711 178.808C188.472 181.833 186.24 186.65 186.436 192.645C186.514 195.007 187.149 197.282 188.401 199.291C188.843 199.999 189.336 200.664 189.869 201.298ZM149.031 49.6602H171.361V72.4873H182.651C187.866 72.4873 193.229 71.5586 198.166 69.8857C200.593 69.0625 203.316 67.918 205.709 66.4775C202.557 62.3623 200.947 57.166 200.475 52.0439C199.83 45.0762 201.236 36.0078 205.951 30.5547L208.299 27.8398L211.096 30.0889C218.138 35.7461 224.061 43.6523 225.105 52.665C233.584 50.1709 243.54 50.7607 251.014 55.0742L254.08 56.8437L252.467 59.9941C246.146 72.3301 232.93 76.1523 220.01 75.4756C200.677 123.629 158.586 146.426 107.552 146.426C81.1847 146.426 56.9952 136.569 43.2198 113.177L42.9942 112.796L40.9874 108.712C36.3312 98.415 34.7843 87.1348 35.8331 75.8633L36.1485 72.4873H55.2443V49.6602H77.5734V27.3301H122.234V5H149.031V49.6602Z" fill="#364548"/>
<path fill-rule="evenodd" clip-rule="evenodd" d="M221.377 58.1055C222.874 46.4688 214.166 37.3291 208.766 32.9893C202.542 40.1846 201.575 59.042 211.339 66.9814C205.89 71.8213 194.408 76.208 182.651 76.208H39.541C38.3984 88.4805 40.5527 99.7822 45.4736 109.455L47.1016 112.434C48.1323 114.182 49.2587 115.872 50.4756 117.496C56.3594 117.874 61.7842 118.004 66.7471 117.895H66.749C76.5019 117.68 84.46 116.527 90.4912 114.437C90.9176 114.305 91.3788 114.343 91.7774 114.545C92.176 114.746 92.4806 115.094 92.6269 115.516C92.7731 115.938 92.7495 116.4 92.5611 116.805C92.3727 117.21 92.0342 117.526 91.6172 117.686C90.8144 117.965 89.9785 118.225 89.1152 118.472H89.1123C84.3633 119.828 79.2705 120.74 72.7002 121.146C73.0908 121.152 72.2939 121.204 72.292 121.204C72.0684 121.219 71.7871 121.251 71.5625 121.263C68.9766 121.408 66.1855 121.438 63.332 121.438C60.2109 121.438 57.1377 121.38 53.7012 121.204L53.6133 121.263C65.5371 134.665 84.1816 142.703 107.553 142.703C157.014 142.703 198.967 120.777 217.545 71.5537C230.725 72.9063 243.392 69.5449 249.153 58.2969C239.976 53.001 228.173 54.6895 221.377 58.1055Z" fill="#22A0C8"/>
<path fill-rule="evenodd" clip-rule="evenodd" d="M221.377 58.1055C222.874 46.4688 214.166 37.3291 208.765 32.9893C202.542 40.1846 201.575 59.042 211.339 66.9814C205.889 71.8213 194.408 76.208 182.651 76.208H48.0154C47.4314 95.0029 54.406 109.27 66.7459 117.895H66.7488C76.5017 117.68 84.4597 116.527 90.491 114.437C90.9174 114.305 91.3786 114.343 91.7772 114.545C92.1758 114.746 92.4804 115.094 92.6267 115.516C92.7729 115.938 92.7493 116.4 92.5609 116.805C92.3725 117.21 92.034 117.526 91.617 117.686C90.8142 117.965 89.9783 118.225 89.115 118.472H89.1121C84.3631 119.828 78.8328 120.857 72.2625 121.263C72.2605 121.263 72.1033 121.111 72.1013 121.111C88.9344 129.746 113.342 129.715 141.325 118.966C172.702 106.911 201.9 83.9463 222.272 57.6797C221.966 57.8184 221.667 57.96 221.377 58.1055Z" fill="#37B1D9"/>
<path fill-rule="evenodd" clip-rule="evenodd" d="M39.8096 91.1191C40.6982 97.6934 42.6221 103.849 45.4736 109.455L47.1016 112.434C48.1322 114.182 49.2586 115.872 50.4756 117.496C56.3604 117.874 61.7852 118.004 66.749 117.895C76.5019 117.68 84.46 116.527 90.4912 114.438C90.9176 114.305 91.3788 114.343 91.7774 114.545C92.176 114.746 92.4806 115.094 92.6269 115.516C92.7731 115.938 92.7495 116.4 92.5611 116.805C92.3727 117.21 92.0342 117.526 91.6172 117.686C90.8144 117.965 89.9785 118.225 89.1152 118.472H89.1123C84.3633 119.828 78.8623 120.799 72.292 121.205C72.0664 121.219 71.6729 121.222 71.4453 121.234C68.8613 121.379 66.0986 121.468 63.2441 121.468C60.124 121.468 56.9326 121.408 53.498 121.233C65.4219 134.636 84.1816 142.703 107.553 142.703C149.896 142.703 186.736 126.631 208.118 91.1191H39.8096Z" fill="#1B81A5"/>
<path fill-rule="evenodd" clip-rule="evenodd" d="M49.3037 91.1191C51.835 102.662 57.918 111.724 66.749 117.895C76.502 117.68 84.46 116.527 90.4912 114.438C90.9176 114.305 91.3788 114.343 91.7774 114.545C92.176 114.746 92.4806 115.094 92.6269 115.516C92.7731 115.938 92.7495 116.4 92.5611 116.805C92.3727 117.21 92.0342 117.526 91.6172 117.686C90.8144 117.965 89.9785 118.225 89.1152 118.472H89.1123C84.3633 119.828 78.7461 120.799 72.1748 121.205C89.0068 129.838 113.344 129.714 141.325 118.966C158.253 112.462 174.545 102.78 189.161 91.1191H49.3037Z" fill="#1D91B4"/>
<path fill-rule="evenodd" clip-rule="evenodd" d="M58.9648 53.3818H78.3184V72.7353H58.9648V53.3818ZM60.5771 54.9951H62.1045V71.123H60.5771V54.9951ZM63.4482 54.9951H65.0371V71.123H63.4492L63.4482 54.9951ZM66.3799 54.9951H67.9688V71.123H66.3799V54.9951ZM69.3135 54.9951H70.9014V71.123H69.3135V54.9951ZM72.2461 54.9951H73.834V71.123H72.2461V54.9951ZM75.1777 54.9951H76.7061V71.123H75.1777V54.9951ZM81.2949 31.0518H100.649V50.4043H81.2939L81.2949 31.0518ZM82.9082 32.665H84.4346V48.792H82.9082V32.665ZM85.7793 32.665H87.3672V48.792H85.7803L85.7793 32.665ZM88.7109 32.665H90.2988V48.792H88.7109V32.665ZM91.6436 32.665H93.2314V48.792H91.6436V32.665ZM94.5762 32.665H96.165V48.792H94.5762V32.665ZM97.5078 32.665H99.0371V48.792H97.5078V32.665Z" fill="#23A3C2"/>
<path fill-rule="evenodd" clip-rule="evenodd" d="M81.2949 53.3818H100.649V72.7354H81.2939L81.2949 53.3818ZM82.9082 54.9951H84.4346V71.123H82.9082V54.9951ZM85.7793 54.9951H87.3672V71.123H85.7803L85.7793 54.9951ZM88.7109 54.9951H90.2988V71.123H88.7109V54.9951ZM91.6436 54.9951H93.2314V71.123H91.6436V54.9951ZM94.5762 54.9951H96.165V71.123H94.5762V54.9951ZM97.5078 54.9951H99.0371V71.123H97.5078V54.9951Z" fill="#34BBDE"/>
<path fill-rule="evenodd" clip-rule="evenodd" d="M103.626 53.3818H122.979V72.7354H103.626V53.3818ZM105.238 54.9951H106.765V71.123H105.238V54.9951ZM108.109 54.9951H109.697V71.123H108.109V54.9951ZM111.042 54.9951H112.63V71.123H111.042V54.9951ZM113.975 54.9951H115.563V71.123H113.975V54.9951ZM116.906 54.9951H118.496V71.123H116.906V54.9951ZM119.839 54.9951H121.366V71.123H119.839V54.9951Z" fill="#23A3C2"/>
<path fill-rule="evenodd" clip-rule="evenodd" d="M103.626 31.0518H122.979V50.4043H103.626V31.0518ZM105.238 32.665H106.765V48.792H105.238V32.665ZM108.109 32.665H109.697V48.792H108.109V32.665ZM111.042 32.665H112.63V48.792H111.042V32.665ZM113.975 32.665H115.563V48.792H113.975V32.665ZM116.906 32.665H118.496V48.792H116.906V32.665ZM119.839 32.665H121.366V48.792H119.839V32.665ZM125.956 53.3818H145.31V72.7353H125.956V53.3818ZM127.569 54.9951H129.096V71.123H127.569V54.9951ZM130.44 54.9951H132.028V71.123H130.44V54.9951ZM133.372 54.9951H134.96V71.123H133.372V54.9951ZM136.305 54.9951H137.894V71.123H136.305V54.9951ZM139.237 54.9951H140.826V71.123H139.237V54.9951ZM142.17 54.9951H143.697V71.123H142.17V54.9951Z" fill="#34BBDE"/>
<path fill-rule="evenodd" clip-rule="evenodd" d="M125.956 31.0518H145.31V50.4043H125.956V31.0518ZM127.569 32.665H129.096V48.792H127.569V32.665ZM130.44 32.665H132.028V48.792H130.44V32.665ZM133.372 32.665H134.96V48.792H133.372V32.665ZM136.305 32.665H137.894V48.792H136.305V32.665ZM139.237 32.665H140.826V48.792H139.237V32.665ZM142.17 32.665H143.697V48.792H142.17V32.665Z" fill="#23A3C2"/>
<path fill-rule="evenodd" clip-rule="evenodd" d="M125.956 8.7207H145.31V28.0762H125.956V8.7207ZM127.569 10.333H129.096V26.4619H127.569V10.333ZM130.44 10.333H132.028V26.4619H130.44V10.333ZM133.372 10.333H134.96V26.4619H133.372V10.333ZM136.305 10.333H137.894V26.4619H136.305V10.333ZM139.237 10.333H140.826V26.4619H139.237V10.333ZM142.17 10.333H143.697V26.4619H142.17V10.333Z" fill="#34BBDE"/>
<path fill-rule="evenodd" clip-rule="evenodd" d="M148.286 53.3818H167.64V72.7354H148.286V53.3818ZM149.897 54.9951H151.426V71.123H149.898V54.9951H149.897ZM152.769 54.9951H154.357V71.123H152.77L152.769 54.9951ZM155.702 54.9951H157.291V71.123H155.702V54.9951ZM158.634 54.9951H160.223V71.123H158.634V54.9951ZM161.567 54.9951H163.155V71.123H161.567V54.9951ZM164.499 54.9951H166.026V71.123H164.499V54.9951Z" fill="#23A3C2"/>
<path fill-rule="evenodd" clip-rule="evenodd" d="M99.4376 104.113C100.145 104.104 100.847 104.235 101.503 104.499C102.159 104.763 102.756 105.155 103.26 105.652C103.763 106.149 104.163 106.741 104.436 107.393C104.708 108.046 104.849 108.746 104.849 109.454C104.849 110.161 104.708 110.861 104.435 111.514C104.162 112.166 103.762 112.758 103.258 113.255C102.755 113.751 102.157 114.143 101.501 114.407C100.845 114.671 100.143 114.802 99.4356 114.792C98.032 114.773 96.6925 114.202 95.7068 113.202C94.7212 112.203 94.1687 110.855 94.1689 109.452C94.1692 108.048 94.7222 106.701 95.7082 105.702C96.6942 104.703 98.034 104.132 99.4376 104.113Z" fill="#D3ECEC"/>
<path fill-rule="evenodd" clip-rule="evenodd" d="M99.4375 105.628C99.9258 105.628 100.392 105.72 100.821 105.887C100.525 106.059 100.293 106.324 100.162 106.641C100.032 106.958 100.009 107.309 100.097 107.64C100.186 107.971 100.381 108.264 100.653 108.473C100.925 108.682 101.258 108.796 101.601 108.797C102.191 108.797 102.704 108.47 102.97 107.985C103.284 108.743 103.347 109.582 103.148 110.377C102.949 111.173 102.5 111.884 101.866 112.405C101.232 112.926 100.448 113.229 99.6285 113.27C98.8092 113.31 97.9986 113.087 97.3163 112.631C96.634 112.176 96.1162 111.513 95.8395 110.741C95.5628 109.969 95.5418 109.128 95.7796 108.343C96.0174 107.558 96.5013 106.87 97.16 106.381C97.8187 105.892 98.6172 105.628 99.4375 105.628ZM5 93.0488H253.366C247.959 91.6777 236.257 89.8242 238.187 82.7363C228.353 94.1152 204.639 90.7197 198.653 85.1094C191.989 94.7754 153.19 91.1006 150.484 83.5703C142.129 93.376 116.239 93.376 107.884 83.5703C105.176 91.1006 66.3779 94.7754 59.7129 85.1084C53.7285 90.7197 30.0156 94.1152 20.1816 82.7373C22.1113 89.8242 10.4092 91.6768 5 93.0488Z" fill="#364548"/>
<path fill-rule="evenodd" clip-rule="evenodd" d="M113.63 142.588C100.407 136.313 93.1504 127.783 89.1123 118.473C84.2002 119.874 78.2969 120.771 71.4365 121.155C68.8525 121.3 66.1338 121.374 63.2822 121.374C59.9932 121.374 56.5273 121.276 52.8887 121.084C65.0146 133.203 79.9316 142.533 107.553 142.703C109.592 142.703 111.615 142.664 113.63 142.588Z" fill="#BDD9D7"/>
<path fill-rule="evenodd" clip-rule="evenodd" d="M94.0234 127.064C92.1943 124.581 90.4199 121.46 89.1152 118.471C84.2031 119.874 78.2979 120.771 71.4365 121.156C76.1494 123.714 82.8877 126.084 94.0234 127.064Z" fill="#D3ECEC"/>
</svg>
