<svg width="260" height="165" viewBox="0 0 260 165" fill="none" xmlns="http://www.w3.org/2000/svg">
<rect width="260" height="165" rx="20" fill="white"/>
<path d="M77.0395 62.0245C77.0395 65.0289 77.3654 67.465 77.9358 69.2514C78.5876 71.0378 79.4024 72.9867 80.5431 75.0979C80.9505 75.7475 81.1135 76.3971 81.1135 76.9655C81.1135 77.7775 80.6246 78.5896 79.5654 79.4016L74.4322 82.812C73.6988 83.2992 72.9655 83.5428 72.3137 83.5428C71.4989 83.5428 70.6841 83.1368 69.8693 82.406C68.7286 81.188 67.7509 79.8888 66.9361 78.5896C66.1213 77.2091 65.3065 75.6663 64.4102 73.7987C58.0548 81.2692 50.0698 85.0045 40.4552 85.0045C33.611 85.0045 28.1519 83.0556 24.1594 79.158C20.1669 75.2603 18.1299 70.0634 18.1299 63.5673C18.1299 56.6652 20.5743 51.0623 25.5445 46.8398C30.5148 42.6174 37.1146 40.5061 45.507 40.5061C48.2773 40.5061 51.129 40.7497 54.1438 41.1557C57.1585 41.5617 60.2547 42.2114 63.5139 42.9422V37.0145C63.5139 30.8432 62.2103 26.5395 59.6844 24.0222C57.077 21.505 52.6772 20.287 46.4032 20.287C43.5515 20.287 40.6182 20.6118 37.6035 21.3426C34.5887 22.0734 31.6555 22.9666 28.8037 24.1035C27.5 24.6719 26.5223 24.9967 25.9519 25.1591C25.3816 25.3215 24.9742 25.4027 24.6482 25.4027C23.5075 25.4027 22.9372 24.5907 22.9372 22.8854V18.9066C22.9372 17.6073 23.1001 16.6329 23.5075 16.0645C23.9149 15.4961 24.6482 14.9277 25.7889 14.3593C28.6407 12.8977 32.0629 11.6796 36.0554 10.7052C40.0478 9.64961 44.2848 9.1624 48.7661 9.1624C58.4622 9.1624 65.5509 11.3548 70.1138 15.7397C74.5951 20.1246 76.8765 26.7831 76.8765 35.7152V62.0245H77.0395ZM43.9589 74.3671C46.6477 74.3671 49.418 73.8799 52.3512 72.9055C55.2845 71.931 57.8918 70.1446 60.0918 67.7086C61.3955 66.1657 62.3732 64.4605 62.8621 62.5117C63.351 60.5629 63.6769 58.208 63.6769 55.4472V52.0367C61.314 51.4683 58.7881 50.9811 56.1808 50.6563C53.5734 50.3315 51.0476 50.1691 48.5217 50.1691C43.0626 50.1691 39.0701 51.2247 36.3813 53.4171C33.6925 55.6096 32.3888 58.6952 32.3888 62.7553C32.3888 66.5718 33.3665 69.4138 35.4035 71.3626C37.359 73.3927 40.2108 74.3671 43.9589 74.3671ZM109.387 83.1368C107.92 83.1368 106.942 82.8932 106.291 82.3248C105.639 81.8376 105.068 80.7008 104.58 79.158L85.4319 16.3893C84.943 14.7653 84.6986 13.7097 84.6986 13.1413C84.6986 11.842 85.3504 11.1112 86.6541 11.1112H94.6391C96.1872 11.1112 97.2464 11.3548 97.8168 11.9232C98.4686 12.4105 98.9575 13.5473 99.4464 15.0901L113.135 68.8454L125.846 15.0901C126.253 13.4661 126.742 12.4105 127.394 11.9232C128.046 11.436 129.186 11.1112 130.653 11.1112H137.171C138.719 11.1112 139.779 11.3548 140.43 11.9232C141.082 12.4105 141.653 13.5473 141.979 15.0901L154.852 69.495L168.948 15.0901C169.437 13.4661 170.008 12.4105 170.578 11.9232C171.23 11.436 172.289 11.1112 173.756 11.1112H181.333C182.637 11.1112 183.37 11.7608 183.37 13.1413C183.37 13.5473 183.289 13.9533 183.207 14.4405C183.126 14.9277 182.963 15.5773 182.637 16.4705L163 79.2392C162.511 80.8632 161.941 81.9188 161.289 82.406C160.637 82.8932 159.578 83.218 158.193 83.218H151.186C149.638 83.218 148.578 82.9744 147.927 82.406C147.275 81.8376 146.704 80.782 146.378 79.158L133.749 26.7831L121.201 79.0768C120.794 80.7008 120.305 81.7564 119.653 82.3248C119.001 82.8932 117.861 83.1368 116.394 83.1368H109.387ZM214.088 85.3293C209.851 85.3293 205.614 84.8421 201.54 83.8676C197.466 82.8932 194.288 81.8376 192.17 80.6196C190.866 79.8888 189.97 79.0768 189.644 78.3459C189.318 77.6151 189.155 76.8031 189.155 76.0723V71.931C189.155 70.2258 189.807 69.4138 191.029 69.4138C191.518 69.4138 192.007 69.495 192.496 69.6574C192.985 69.8198 193.718 70.1446 194.533 70.4694C197.303 71.6874 200.318 72.6619 203.496 73.3115C206.755 73.9611 209.932 74.2859 213.192 74.2859C218.325 74.2859 222.317 73.3927 225.088 71.6062C227.858 69.8198 229.325 67.2214 229.325 63.8921C229.325 61.6185 228.591 59.7508 227.125 58.208C225.658 56.6652 222.888 55.2848 218.895 53.9855L207.081 50.3315C201.133 48.4639 196.733 45.703 194.044 42.0489C191.355 38.4761 189.97 34.4972 189.97 30.2748C189.97 26.8643 190.703 23.8598 192.17 21.2614C193.637 18.663 195.592 16.3893 198.036 14.6029C200.481 12.7353 203.251 11.3548 206.51 10.3804C209.769 9.40601 213.192 9 216.777 9C218.569 9 220.443 9.0812 222.236 9.32481C224.11 9.56841 225.821 9.89321 227.532 10.218C229.162 10.624 230.71 11.03 232.176 11.5172C233.643 12.0044 234.784 12.4917 235.598 12.9789C236.739 13.6285 237.554 14.2781 238.043 15.0089C238.532 15.6585 238.776 16.5517 238.776 17.6885V21.505C238.776 23.2102 238.124 24.1035 236.902 24.1035C236.25 24.1035 235.191 23.7786 233.806 23.129C229.162 21.0178 223.947 19.9622 218.162 19.9622C213.518 19.9622 209.851 20.693 207.325 22.2358C204.799 23.7786 203.496 26.1335 203.496 29.4627C203.496 31.7364 204.31 33.6852 205.94 35.228C207.57 36.7709 210.584 38.3137 214.903 39.6941L226.473 43.3482C232.339 45.2158 236.576 47.8142 239.102 51.1435C241.628 54.4728 242.85 58.2892 242.85 62.5117C242.85 66.0033 242.117 69.1702 240.732 71.931C239.265 74.6919 237.31 77.1279 234.784 79.0768C232.258 81.1068 229.243 82.5684 225.739 83.624C222.073 84.7609 218.243 85.3293 214.088 85.3293Z" fill="#252F3E"/>
<path fill-rule="evenodd" clip-rule="evenodd" d="M229.487 124.793C202.68 144.525 163.733 155 130.245 155C83.3131 155 41.0253 137.704 9.08532 108.959C6.55946 106.685 8.84088 103.6 11.8556 105.386C46.4029 125.362 89.0166 137.461 133.097 137.461C162.837 137.461 195.51 131.289 225.576 118.622C230.058 116.592 233.887 121.545 229.487 124.793Z" fill="#FF9900"/>
<path fill-rule="evenodd" clip-rule="evenodd" d="M240.65 112.126C237.228 107.741 217.998 110.015 209.28 111.07C206.673 111.395 206.265 109.121 208.628 107.416C223.946 96.6975 249.124 99.7832 252.057 103.356C254.99 107.01 251.242 132.101 236.902 144.119C234.702 145.987 232.583 145.012 233.561 142.576C236.82 134.537 244.072 116.429 240.65 112.126Z" fill="#FF9900"/>
</svg>
