<svg width="250" height="250" viewBox="0 0 250 250" fill="none" xmlns="http://www.w3.org/2000/svg">
<rect width="250" height="250" rx="20" fill="#007ACC"/>
<path d="M55 125.671V135.858H87.5V228.358H110.563V135.858H143.063V125.858C143.063 120.233 143.063 115.671 142.812 115.546C142.812 115.358 123 115.296 98.9375 115.296L55.1875 115.483V125.733L55 125.671ZM201.062 115.233C207.437 116.733 212.313 119.608 216.688 124.171C219 126.671 222.437 131.046 222.687 132.171C222.687 132.546 211.875 139.858 205.313 143.921C205.063 144.108 204.063 143.046 203.063 141.421C199.813 136.796 196.5 134.796 191.312 134.421C183.812 133.921 178.812 137.858 178.812 144.421C178.812 146.421 179.188 147.546 179.938 149.171C181.625 152.608 184.75 154.671 194.437 158.921C212.312 166.608 220.062 171.671 224.75 178.921C230.062 187.046 231.25 199.796 227.687 209.358C223.687 219.796 213.938 226.858 200 229.171C195.625 229.921 185.625 229.796 180.938 228.983C170.938 227.108 161.375 222.108 155.5 215.671C153.188 213.171 148.75 206.483 149 206.046L151.375 204.546L160.75 199.108L167.813 194.983L169.437 197.171C171.5 200.421 176.125 204.796 178.812 206.296C186.937 210.483 197.812 209.921 203.187 205.046C205.5 202.921 206.5 200.671 206.5 197.546C206.5 194.671 206.063 193.358 204.625 191.171C202.625 188.421 198.625 186.171 187.375 181.171C174.438 175.671 168.937 172.171 163.812 166.796C160.875 163.546 158.188 158.483 156.938 154.296C156 150.671 155.688 141.796 156.562 138.233C159.25 125.733 168.688 116.983 182.188 114.483C186.563 113.608 196.875 113.983 201.188 115.108L201.062 115.233Z" fill="white"/>
</svg>
