<svg width="220" height="250" viewBox="0 0 220 250" fill="none" xmlns="http://www.w3.org/2000/svg">
<rect width="220" height="250" rx="20" fill="white"/>
<path d="M23.2994 187.393L14.5547 182.348L111.972 13.7671L120.716 18.8115L23.2994 187.393Z" fill="#E535AB"/>
<path d="M12.5527 168.881H207.387V178.969H12.5527V168.881Z" fill="#E535AB"/>
<path d="M113.861 230.767L16.4077 174.549L21.4565 165.811L118.91 222.029L113.861 230.767ZM198.519 84.2478L101.065 28.0297L106.114 19.2925L203.568 75.5106L198.519 84.2478Z" fill="#E535AB"/>
<path d="M21.4833 84.2086L16.4346 75.472L113.888 19.2539L118.937 27.9905L21.4833 84.2086Z" fill="#E535AB"/>
<path d="M196.722 187.395L99.3052 18.8135L108.05 13.769L205.467 182.35L196.722 187.395ZM20.2778 68.7819H30.3754V181.218H20.2778V68.7819Z" fill="#E535AB"/>
<path d="M189.625 68.7822H199.722V181.218H189.625V68.7822Z" fill="#E535AB"/>
<path d="M112.142 226.496L107.732 218.864L192.491 169.969L196.901 177.601L112.142 226.496Z" fill="#E535AB"/>
<path d="M213.105 184.5C207.265 194.65 194.248 198.114 184.089 192.279C173.931 186.445 170.464 173.439 176.303 163.289C182.143 153.139 195.16 149.675 205.318 155.51C215.538 161.405 219.005 174.35 213.105 184.5ZM43.636 86.7109C37.7964 96.8606 24.7791 100.325 14.6207 94.4903C4.46234 88.6558 0.995107 75.6496 6.83465 65.5C12.6742 55.3504 25.6915 51.8861 35.8499 57.7206C46.0083 63.6159 49.4755 76.5613 43.636 86.7109ZM6.89548 184.5C1.05594 174.35 4.52317 161.405 14.6815 155.51C24.8399 149.675 37.7964 153.139 43.6968 163.289C49.5363 173.439 46.0691 186.384 35.9107 192.279C25.6915 198.114 12.735 194.65 6.89548 184.5ZM176.364 86.7109C170.524 76.5613 173.992 63.6159 184.15 57.7206C194.308 51.8861 207.265 55.3504 213.165 65.5C219.005 75.6496 215.538 88.595 205.379 94.4903C195.221 100.325 182.204 96.8606 176.364 86.7109ZM110 244C98.2601 244 88.7708 234.519 88.7708 222.789C88.7708 211.059 98.2601 201.578 110 201.578C121.74 201.578 131.229 211.059 131.229 222.789C131.229 234.458 121.74 244 110 244ZM110 48.4219C98.2601 48.4219 88.7708 38.9408 88.7708 27.2109C88.7708 15.4811 98.2601 6 110 6C121.74 6 131.229 15.4811 131.229 27.2109C131.229 38.9408 121.74 48.4219 110 48.4219Z" fill="#E535AB"/>
</svg>
